<svg width="32" height="21" viewBox="0 0 32 21" fill="none" xmlns="http://www.w3.org/2000/svg">
<rect x="16" width="1" height="1" fill="black"/>
<rect x="15" width="1" height="1" fill="black"/>
<rect x="14" width="1" height="1" fill="black"/>
<rect x="13" width="1" height="1" fill="black"/>
<rect x="12" y="1" width="1" height="1" fill="black"/>
<rect x="11" y="1" width="1" height="1" fill="black"/>
<rect x="11" y="2" width="1" height="1" fill="black"/>
<rect x="10" y="2" width="1" height="1" fill="black"/>
<rect x="9" y="2" width="1" height="1" fill="black"/>
<rect x="8" y="1" width="1" height="1" fill="black"/>
<rect x="7" y="1" width="1" height="1" fill="black"/>
<rect x="6" y="1" width="1" height="1" fill="black"/>
<rect x="5" width="1" height="1" fill="black"/>
<rect x="4" width="1" height="1" fill="black"/>
<rect x="3" width="1" height="1" fill="black"/>
<rect x="2" width="1" height="1" fill="black"/>
<rect x="1" y="1" width="1" height="1" fill="black"/>
<rect y="2" width="1" height="1" fill="black"/>
<rect x="1" y="3" width="1" height="1" fill="black"/>
<rect x="2" y="4" width="1" height="1" fill="black"/>
<rect x="3" y="5" width="1" height="1" fill="black"/>
<rect x="4" y="6" width="1" height="1" fill="black"/>
<rect x="5" y="7" width="1" height="1" fill="black"/>
<rect x="6" y="7" width="1" height="1" fill="black"/>
<rect x="7" y="7" width="1" height="1" fill="black"/>
<rect x="7" y="8" width="1" height="1" fill="black"/>
<rect x="7" y="9" width="1" height="1" fill="black"/>
<rect x="7" y="10" width="1" height="1" fill="black"/>
<rect x="6" y="11" width="1" height="1" fill="black"/>
<rect x="6" y="12" width="1" height="1" fill="black"/>
<rect x="6" y="13" width="1" height="1" fill="black"/>
<rect x="7" y="14" width="1" height="1" fill="black"/>
<rect x="8" y="15" width="1" height="1" fill="black"/>
<rect x="9" y="16" width="1" height="1" fill="black"/>
<rect x="9" y="17" width="1" height="1" fill="black"/>
<rect x="9" y="18" width="1" height="1" fill="black"/>
<rect x="9" y="19" width="1" height="1" fill="black"/>
<rect x="10" y="20" width="1" height="1" fill="black"/>
<rect x="11" y="20" width="1" height="1" fill="black"/>
<rect x="12" y="20" width="1" height="1" fill="black"/>
<rect x="13" y="20" width="1" height="1" fill="black"/>
<rect x="14" y="20" width="1" height="1" fill="black"/>
<rect x="15" y="20" width="1" height="1" fill="black"/>
<rect x="16" y="20" width="1" height="1" fill="black"/>
<rect x="17" y="20" width="1" height="1" fill="black"/>
<rect x="18" y="20" width="1" height="1" fill="black"/>
<rect x="19" y="20" width="1" height="1" fill="black"/>
<rect x="20" y="20" width="1" height="1" fill="black"/>
<rect x="21" y="20" width="1" height="1" fill="black"/>
<rect x="22" y="19" width="1" height="1" fill="black"/>
<rect x="22" y="18" width="1" height="1" fill="black"/>
<rect x="22" y="17" width="1" height="1" fill="black"/>
<rect x="22" y="16" width="1" height="1" fill="black"/>
<rect x="23" y="15" width="1" height="1" fill="black"/>
<rect x="24" y="14" width="1" height="1" fill="black"/>
<rect x="25" y="13" width="1" height="1" fill="black"/>
<rect x="25" y="12" width="1" height="1" fill="black"/>
<rect x="25" y="11" width="1" height="1" fill="black"/>
<rect x="24" y="10" width="1" height="1" fill="black"/>
<rect x="24" y="9" width="1" height="1" fill="black"/>
<rect x="24" y="8" width="1" height="1" fill="black"/>
<rect x="8" y="7" width="1" height="1" fill="black"/>
<rect x="8" y="6" width="1" height="1" fill="black"/>
<rect x="8" y="5" width="1" height="1" fill="black"/>
<rect x="8" y="4" width="1" height="1" fill="black"/>
<rect x="9" y="3" width="1" height="1" fill="black"/>
<rect x="17" width="1" height="1" fill="black"/>
<rect x="18" width="1" height="1" fill="black"/>
<rect x="19" y="1" width="1" height="1" fill="black"/>
<rect x="20" y="1" width="1" height="1" fill="black"/>
<rect x="21" y="2" width="1" height="1" fill="black"/>
<rect x="22" y="2" width="1" height="1" fill="black"/>
<rect x="23" y="1" width="1" height="1" fill="black"/>
<rect x="24" y="1" width="1" height="1" fill="black"/>
<rect x="25" y="1" width="1" height="1" fill="black"/>
<rect x="26" width="1" height="1" fill="black"/>
<rect x="27" width="1" height="1" fill="black"/>
<rect x="28" width="1" height="1" fill="black"/>
<rect x="29" width="1" height="1" fill="black"/>
<rect x="30" y="1" width="1" height="1" fill="black"/>
<rect x="31" y="2" width="1" height="1" fill="black"/>
<rect x="30" y="3" width="1" height="1" fill="black"/>
<rect x="29" y="4" width="1" height="1" fill="black"/>
<rect x="28" y="5" width="1" height="1" fill="black"/>
<rect x="27" y="6" width="1" height="1" fill="black"/>
<rect x="26" y="7" width="1" height="1" fill="black"/>
<rect x="25" y="7" width="1" height="1" fill="black"/>
<rect x="24" y="7" width="1" height="1" fill="black"/>
<rect x="23" y="7" width="1" height="1" fill="black"/>
<rect width="1" height="1" transform="matrix(1 0 0 -1 23 6)" fill="black"/>
<rect width="1" height="1" transform="matrix(1 0 0 -1 23 5)" fill="black"/>
<rect width="1" height="1" transform="matrix(1 0 0 -1 22 4)" fill="black"/>
<rect width="1" height="1" transform="matrix(1 0 0 -1 19 5)" fill="black"/>
<rect width="1" height="1" transform="matrix(1 0 0 -1 20 5)" fill="black"/>
<rect width="1" height="1" transform="matrix(1 0 0 -1 20 6)" fill="black"/>
<rect width="1" height="1" transform="matrix(1 0 0 -1 20 7)" fill="black"/>
<rect width="1" height="1" transform="matrix(1 0 0 -1 21 7)" fill="black"/>
<rect width="1" height="1" transform="matrix(1 0 0 -1 21 6)" fill="black"/>
<rect width="1" height="1" transform="matrix(1 0 0 -1 20 8)" fill="black"/>
<rect width="1" height="1" transform="matrix(1 0 0 -1 19 8)" fill="black"/>
<rect width="1" height="1" transform="matrix(1 0 0 -1 18 8)" fill="black"/>
<rect width="1" height="1" transform="matrix(1 0 0 -1 16 9)" fill="black"/>
<rect width="1" height="1" transform="matrix(1 0 0 -1 15 9)" fill="black"/>
<rect width="1" height="1" transform="matrix(1 0 0 -1 18 7)" fill="black"/>
<rect width="1" height="1" transform="matrix(1 0 0 -1 17 7)" fill="black"/>
<rect width="1" height="1" transform="matrix(1 0 0 -1 17 6)" fill="black"/>
<rect width="1" height="1" transform="matrix(1 0 0 -1 14 6)" fill="black"/>
<rect width="1" height="1" transform="matrix(1 0 0 -1 13 5)" fill="black"/>
<rect width="1" height="1" transform="matrix(1 0 0 -1 12 5)" fill="black"/>
<rect width="1" height="1" transform="matrix(1 0 0 -1 11 5)" fill="black"/>
<rect width="1" height="1" transform="matrix(1 0 0 -1 10 6)" fill="black"/>
<rect width="1" height="1" transform="matrix(1 0 0 -1 10 7)" fill="black"/>
<rect width="1" height="1" transform="matrix(1 0 0 -1 11 7)" fill="black"/>
<rect width="1" height="1" transform="matrix(1 0 0 -1 11 6)" fill="white"/>
<rect width="1" height="1" transform="matrix(1 0 0 -1 18 6)" fill="white"/>
<rect width="1" height="1" transform="matrix(1 0 0 -1 19 11)" fill="#6A4C2E"/>
<rect width="1" height="1" transform="matrix(1 0 0 -1 18 11)" fill="#6A4C2E"/>
<rect width="1" height="1" transform="matrix(1 0 0 -1 17 11)" fill="#6A4C2E"/>
<rect width="1" height="1" transform="matrix(1 0 0 -1 16 11)" fill="#6A4C2E"/>
<rect width="1" height="1" transform="matrix(1 0 0 -1 15 11)" fill="#6A4C2E"/>
<rect width="1" height="1" transform="matrix(1 0 0 -1 14 11)" fill="#6A4C2E"/>
<rect width="1" height="1" transform="matrix(1 0 0 -1 13 11)" fill="#6A4C2E"/>
<rect width="1" height="1" transform="matrix(1 0 0 -1 12 11)" fill="#6A4C2E"/>
<rect width="1" height="1" transform="matrix(1 0 0 -1 11 10)" fill="#6A4C2E"/>
<rect width="1" height="1" transform="matrix(1 0 0 -1 10 10)" fill="#6A4C2E"/>
<rect width="1" height="1" transform="matrix(1 0 0 -1 9 9)" fill="#6A4C2E"/>
<rect width="1" height="1" transform="matrix(1 0 0 -1 8 9)" fill="#6A4C2E"/>
<rect width="1" height="1" transform="matrix(1 0 0 -1 20 10)" fill="#6A4C2E"/>
<rect width="1" height="1" transform="matrix(1 0 0 -1 21 10)" fill="#6A4C2E"/>
<rect width="1" height="1" transform="matrix(1 0 0 -1 22 9)" fill="#6A4C2E"/>
<rect width="1" height="1" transform="matrix(1 0 0 -1 23 9)" fill="#6A4C2E"/>
<rect width="1" height="1" transform="matrix(1 0 0 -1 9 11)" fill="#9A6B37"/>
<rect width="1" height="1" transform="matrix(1 0 0 -1 10 11)" fill="#9A6B37"/>
<rect width="1" height="1" transform="matrix(1 0 0 -1 11 11)" fill="#9A6B37"/>
<rect width="1" height="1" transform="matrix(1 0 0 -1 11 12)" fill="#9A6B37"/>
<rect width="1" height="1" transform="matrix(1 0 0 -1 12 12)" fill="#9A6B37"/>
<rect width="1" height="1" transform="matrix(1 0 0 -1 13 12)" fill="#9A6B37"/>
<rect width="1" height="1" transform="matrix(1 0 0 -1 13 13)" fill="#9A6B37"/>
<rect width="1" height="1" transform="matrix(1 0 0 -1 14 13)" fill="#9A6B37"/>
<rect width="1" height="1" transform="matrix(1 0 0 -1 16 13)" fill="#9A6B37"/>
<rect width="1" height="1" transform="matrix(1 0 0 -1 17 13)" fill="#9A6B37"/>
<rect width="1" height="1" transform="matrix(1 0 0 -1 18 13)" fill="#9A6B37"/>
<rect width="1" height="1" transform="matrix(1 0 0 -1 20 12)" fill="#9A6B37"/>
<rect width="1" height="1" transform="matrix(1 0 0 -1 22 11)" fill="#9A6B37"/>
<rect width="1" height="1" transform="matrix(1 0 0 -1 9 10)" fill="#825A37"/>
<rect width="1" height="1" transform="matrix(1 0 0 -1 8 10)" fill="#825A37"/>
<rect width="1" height="1" transform="matrix(1 0 0 -1 8 11)" fill="#825A37"/>
<rect width="1" height="1" transform="matrix(1 0 0 -1 7 12)" fill="#825A37"/>
<rect width="1" height="1" transform="matrix(1 0 0 -1 7 13)" fill="#825A37"/>
<rect width="1" height="1" transform="matrix(1 0 0 -1 7 14)" fill="#825A37"/>
<rect width="1" height="1" transform="matrix(1 0 0 -1 8 14)" fill="#825A37"/>
<rect width="1" height="1" transform="matrix(1 0 0 -1 9 14)" fill="#825A37"/>
<rect width="1" height="1" transform="matrix(1 0 0 -1 10 13)" fill="#825A37"/>
<rect width="1" height="1" transform="matrix(1 0 0 -1 9 12)" fill="#825A37"/>
<rect width="1" height="1" transform="matrix(1 0 0 -1 10 12)" fill="#825A37"/>
<rect width="1" height="1" transform="matrix(1 0 0 -1 11 13)" fill="#825A37"/>
<rect width="1" height="1" transform="matrix(1 0 0 -1 11 14)" fill="#7E5B35"/>
<rect width="1" height="1" transform="matrix(1 0 0 -1 11 15)" fill="#7F5B39"/>
<rect width="1" height="1" transform="matrix(1 0 0 -1 10 16)" fill="#7E5B35"/>
<rect width="1" height="1" transform="matrix(1 0 0 -1 10 17)" fill="#805935"/>
<rect width="1" height="1" transform="matrix(1 0 0 -1 10 18)" fill="#7E5B35"/>
<rect width="1" height="1" transform="matrix(1 0 0 -1 10 19)" fill="#805A35"/>
<rect width="1" height="1" transform="matrix(1 0 0 -1 10 20)" fill="#805A35"/>
<rect width="1" height="1" transform="matrix(1 0 0 -1 11 20)" fill="#805A35"/>
<rect width="1" height="1" transform="matrix(1 0 0 -1 12 20)" fill="#805A35"/>
<rect width="1" height="1" transform="matrix(1 0 0 -1 13 20)" fill="#805A35"/>
<rect width="1" height="1" transform="matrix(1 0 0 -1 14 20)" fill="#805A35"/>
<rect width="1" height="1" transform="matrix(1 0 0 -1 15 20)" fill="#805A35"/>
<rect width="1" height="1" transform="matrix(1 0 0 -1 16 20)" fill="#805A35"/>
<rect width="1" height="1" transform="matrix(1 0 0 -1 17 20)" fill="#805A35"/>
<rect width="1" height="1" transform="matrix(1 0 0 -1 18 20)" fill="#805A35"/>
<rect width="1" height="1" transform="matrix(1 0 0 -1 19 20)" fill="#805A35"/>
<rect width="1" height="1" transform="matrix(1 0 0 -1 20 20)" fill="#805A35"/>
<rect width="1" height="1" transform="matrix(1 0 0 -1 21 20)" fill="#805A35"/>
<rect width="1" height="1" transform="matrix(1 0 0 -1 21 19)" fill="#805A35"/>
<rect width="1" height="1" transform="matrix(1 0 0 -1 21 18)" fill="#805A35"/>
<rect width="1" height="1" transform="matrix(1 0 0 -1 21 17)" fill="#805A35"/>
<rect width="1" height="1" transform="matrix(1 0 0 -1 21 16)" fill="#805A35"/>
<rect width="1" height="1" transform="matrix(1 0 0 -1 20 15)" fill="#805A35"/>
<rect width="1" height="1" transform="matrix(1 0 0 -1 20 14)" fill="#805A35"/>
<rect width="1" height="1" transform="matrix(1 0 0 -1 21 14)" fill="#805A35"/>
<rect width="1" height="1" transform="matrix(1 0 0 -1 22 14)" fill="#805A35"/>
<rect width="1" height="1" transform="matrix(1 0 0 -1 23 14)" fill="#805A35"/>
<rect width="1" height="1" transform="matrix(1 0 0 -1 24 14)" fill="#805A35"/>
<rect width="1" height="1" transform="matrix(1 0 0 -1 24 13)" fill="#805A35"/>
<rect width="1" height="1" transform="matrix(1 0 0 -1 24 12)" fill="#805A35"/>
<rect width="1" height="1" transform="matrix(1 0 0 -1 23 11)" fill="#805A35"/>
<rect width="1" height="1" transform="matrix(1 0 0 -1 23 10)" fill="#805A35"/>
<rect width="1" height="1" transform="matrix(1 0 0 -1 22 10)" fill="#805A35"/>
<rect width="1" height="1" transform="matrix(1 0 0 -1 21 11)" fill="#805A35"/>
<rect width="1" height="1" transform="matrix(1 0 0 -1 20 11)" fill="#805A35"/>
<rect width="1" height="1" transform="matrix(1 0 0 -1 19 12)" fill="#805A35"/>
<rect width="1" height="1" transform="matrix(1 0 0 -1 18 12)" fill="#805A35"/>
<rect width="1" height="1" transform="matrix(1 0 0 -1 17 12)" fill="#805A35"/>
<rect width="1" height="1" transform="matrix(1 0 0 -1 16 12)" fill="#805A35"/>
<rect width="1" height="1" transform="matrix(1 0 0 -1 15 12)" fill="#805A35"/>
<rect width="1" height="1" transform="matrix(1 0 0 -1 15 13)" fill="#805A35"/>
<rect width="1" height="1" transform="matrix(1 0 0 -1 15 14)" fill="#805A35"/>
<rect width="1" height="1" transform="matrix(1 0 0 -1 16 14)" fill="#805A35"/>
<rect width="1" height="1" transform="matrix(1 0 0 -1 16 15)" fill="#805A35"/>
<rect width="1" height="1" transform="matrix(1 0 0 -1 16 16)" fill="#805A35"/>
<rect width="1" height="1" transform="matrix(1 0 0 -1 16 17)" fill="#805A35"/>
<rect width="1" height="1" transform="matrix(1 0 0 -1 16 18)" fill="#805A35"/>
<rect width="1" height="1" transform="matrix(1 0 0 -1 17 19)" fill="#805A35"/>
<rect width="1" height="1" transform="matrix(1 0 0 -1 17 14)" fill="#805A35"/>
<rect width="1" height="1" transform="matrix(1 0 0 -1 18 14)" fill="#805A35"/>
<rect width="1" height="1" transform="matrix(1 0 0 -1 19 13)" fill="#805A35"/>
<rect width="1" height="1" transform="matrix(1 0 0 -1 21 12)" fill="#805A35"/>
<rect width="1" height="1" transform="matrix(1 0 0 -1 21 13)" fill="#8C6642"/>
<rect width="1" height="1" transform="matrix(1 0 0 -1 21 13)" fill="#8C6642"/>
<rect width="1" height="1" transform="matrix(1 0 0 -1 21 13)" fill="#805A35"/>
<rect width="1" height="1" transform="matrix(1 0 0 -1 20 13)" fill="#805A35"/>
<rect width="1" height="1" transform="matrix(1 0 0 -1 22 12)" fill="#805A35"/>
<rect width="1" height="1" transform="matrix(1 0 0 -1 14 14)" fill="#805A35"/>
<rect width="1" height="1" transform="matrix(1 0 0 -1 13 14)" fill="#805A35"/>
<rect width="1" height="1" transform="matrix(1 0 0 -1 14 12)" fill="#805A35"/>
<rect width="1" height="1" transform="matrix(1 0 0 -1 12 13)" fill="#805A35"/>
<rect width="1" height="1" transform="matrix(1 0 0 -1 14 16)" fill="#A77A50"/>
<rect width="1" height="1" transform="matrix(1 0 0 -1 15 16)" fill="#A77A50"/>
<rect width="1" height="1" transform="matrix(1 0 0 -1 14 17)" fill="#A77A50"/>
<rect width="1" height="1" transform="matrix(1 0 0 -1 15 17)" fill="#A77A50"/>
<rect width="1" height="1" transform="matrix(1 0 0 -1 14 18)" fill="#A77A50"/>
<rect width="1" height="1" transform="matrix(1 0 0 -1 14 18)" fill="#A77A50"/>
<rect width="1" height="1" transform="matrix(1 0 0 -1 15 18)" fill="#A77A50"/>
<rect width="1" height="1" transform="matrix(1 0 0 -1 14 19)" fill="#A77A50"/>
<rect width="1" height="1" transform="matrix(1 0 0 -1 15 19)" fill="#A77A50"/>
<rect width="1" height="1" transform="matrix(1 0 0 -1 16 19)" fill="#A77A50"/>
<rect width="1" height="1" transform="matrix(1 0 0 -1 18 18)" fill="#A77A50"/>
<rect width="1" height="1" transform="matrix(1 0 0 -1 18 17)" fill="#A77A50"/>
<rect x="18" y="15" width="1" height="1" fill="#A77A50"/>
<rect x="18" y="14" width="1" height="1" fill="#8C6642"/>
<rect x="19" y="14" width="1" height="1" fill="#A77A50"/>
<rect x="19" y="15" width="1" height="1" fill="#A77A50"/>
<rect x="19" y="16" width="1" height="1" fill="#A77A50"/>
<rect x="19" y="17" width="1" height="1" fill="#A77A50"/>
<rect x="19" y="18" width="1" height="1" fill="#A77A50"/>
<rect x="20" y="18" width="1" height="1" fill="#A77A50"/>
<rect x="20" y="17" width="1" height="1" fill="#A77A50"/>
<rect x="20" y="16" width="1" height="1" fill="#A77A50"/>
<rect x="20" y="15" width="1" height="1" fill="#A77A50"/>
<rect x="19" y="13" width="1" height="1" fill="#8C6642"/>
<rect width="1" height="1" transform="matrix(1 0 0 -1 17 18)" fill="#A77A50"/>
<rect width="1" height="1" transform="matrix(1 0 0 -1 17 17)" fill="#A77A50"/>
<rect x="17" y="15" width="1" height="1" fill="#A77A50"/>
<rect x="17" y="14" width="1" height="1" fill="#8C6642"/>
<rect width="1" height="1" transform="matrix(1 0 0 -1 18 19)" fill="#A77A50"/>
<rect width="1" height="1" transform="matrix(1 0 0 -1 14 15)" fill="#A77A50"/>
<rect width="1" height="1" transform="matrix(1 0 0 -1 15 15)" fill="#A77A50"/>
<rect width="1" height="1" transform="matrix(1 0 0 -1 22 13)" fill="#A77A50"/>
<rect width="1" height="1" transform="matrix(1 0 0 -1 23 13)" fill="#A77A50"/>
<rect width="1" height="1" transform="matrix(1 0 0 -1 23 12)" fill="#A77A50"/>
<rect width="1" height="1" transform="matrix(1 0 0 -1 12 15)" fill="#A77A50"/>
<rect width="1" height="1" transform="matrix(1 0 0 -1 9 13)" fill="#A77A50"/>
<rect width="1" height="1" transform="matrix(1 0 0 -1 8 13)" fill="#A77A50"/>
<rect width="1" height="1" transform="matrix(1 0 0 -1 8 12)" fill="#A77A50"/>
<rect width="1" height="1" transform="matrix(1 0 0 -1 12 16)" fill="#A77A50"/>
<rect width="1" height="1" transform="matrix(1 0 0 -1 12 17)" fill="#A77A50"/>
<rect width="1" height="1" transform="matrix(1 0 0 -1 12 18)" fill="#A77A50"/>
<rect width="1" height="1" transform="matrix(1 0 0 -1 12 19)" fill="#A77A50"/>
<rect width="1" height="1" transform="matrix(1 0 0 -1 11 18)" fill="#896541"/>
<rect width="1" height="1" transform="matrix(1 0 0 -1 11 17)" fill="#896541"/>
<rect width="1" height="1" transform="matrix(1 0 0 -1 11 16)" fill="#896541"/>
<rect width="1" height="1" transform="matrix(1 0 0 -1 11 19)" fill="#896541"/>
<rect width="1" height="1" transform="matrix(1 0 0 -1 13 19)" fill="#A77A50"/>
<rect width="1" height="1" transform="matrix(1 0 0 -1 13 18)" fill="#A77A50"/>
<rect width="1" height="1" transform="matrix(1 0 0 -1 13 17)" fill="#A77A50"/>
<rect width="1" height="1" transform="matrix(1 0 0 -1 13 16)" fill="#A77A50"/>
<rect width="1" height="1" transform="matrix(1 0 0 -1 13 15)" fill="#A77A50"/>
<rect width="1" height="1" transform="matrix(1 0 0 -1 12 14)" fill="#A77A50"/>
<rect width="1" height="1" transform="matrix(1 0 0 -1 10 14)" fill="#569146"/>
<rect width="1" height="1" transform="matrix(1 0 0 -1 9 15)" fill="#569146"/>
<rect width="1" height="1" transform="matrix(1 0 0 -1 10 15)" fill="#46873A"/>
<rect width="1" height="1" transform="matrix(1 0 0 -1 21 15)" fill="#46873A"/>
<rect width="1" height="1" transform="matrix(1 0 0 -1 22 15)" fill="#46873A"/>
<rect width="1" height="1" transform="matrix(1 0 0 -1 24 5)" fill="#46873A"/>
<rect width="1" height="1" transform="matrix(1 0 0 -1 25 5)" fill="#46873A"/>
<rect width="1" height="1" transform="matrix(1 0 0 -1 26 4)" fill="#46873A"/>
<rect width="1" height="1" transform="matrix(1 0 0 -1 27 3)" fill="#46873A"/>
<rect width="1" height="1" transform="matrix(1 0 0 -1 28 3)" fill="#46873A"/>
<rect width="1" height="1" transform="matrix(1 0 0 -1 29 3)" fill="#46873A"/>
<rect width="1" height="1" transform="matrix(1 0 0 -1 7 5)" fill="#46873A"/>
<rect width="1" height="1" transform="matrix(1 0 0 -1 5 6)" fill="#F2BCDE"/>
<rect width="1" height="1" transform="matrix(1 0 0 -1 26 5)" fill="#F2BCDE"/>
<rect width="1" height="1" transform="matrix(1 0 0 -1 5 5)" fill="#F2BCDE"/>
<rect width="1" height="1" transform="matrix(1 0 0 -1 27 4)" fill="#F2BCDE"/>
<rect width="1" height="1" transform="matrix(1 0 0 -1 4 5)" fill="#F2BCDE"/>
<rect width="1" height="1" transform="matrix(1 0 0 -1 3 4)" fill="#F2BCDE"/>
<rect width="1" height="1" transform="matrix(1 0 0 -1 2 4)" fill="#F2BCDE"/>
<rect width="1" height="1" transform="matrix(1 0 0 -1 7 7)" fill="#C69DBB"/>
<rect width="1" height="1" transform="matrix(1 0 0 -1 6 6)" fill="#C69DBB"/>
<rect width="1" height="1" transform="matrix(1 0 0 -1 7 6)" fill="#C69DBB"/>
<rect width="1" height="1" transform="matrix(1 0 0 -1 6 7)" fill="#C69DBB"/>
<rect width="1" height="1" transform="matrix(1 0 0 -1 24 6)" fill="#C69DBB"/>
<rect width="1" height="1" transform="matrix(1 0 0 -1 25 6)" fill="#C69DBB"/>
<rect width="1" height="1" transform="matrix(1 0 0 -1 25 7)" fill="#C69DBB"/>
<rect width="1" height="1" transform="matrix(1 0 0 -1 26 6)" fill="#C69DBB"/>
<rect width="1" height="1" transform="matrix(1 0 0 -1 26 7)" fill="#C69DBB"/>
<rect width="1" height="1" transform="matrix(1 0 0 -1 27 6)" fill="#C69DBB"/>
<rect width="1" height="1" transform="matrix(1 0 0 -1 27 5)" fill="#C69DBB"/>
<rect width="1" height="1" transform="matrix(1 0 0 -1 28 5)" fill="#C69DBB"/>
<rect width="1" height="1" transform="matrix(1 0 0 -1 28 4)" fill="#C69DBB"/>
<rect width="1" height="1" transform="matrix(1 0 0 -1 29 4)" fill="#C69DBB"/>
<rect width="1" height="1" transform="matrix(1 0 0 -1 24 7)" fill="#C69DBB"/>
<rect width="1" height="1" transform="matrix(1 0 0 -1 5 7)" fill="#C69DBB"/>
<rect width="1" height="1" transform="matrix(1 0 0 -1 4 6)" fill="#C69DBB"/>
<rect width="1" height="1" transform="matrix(1 0 0 -1 3 5)" fill="#C69DBB"/>
<rect width="1" height="1" transform="matrix(1 0 0 -1 4 4)" fill="#C69DBB"/>
<rect width="1" height="1" transform="matrix(1 0 0 -1 6 5)" fill="#46873A"/>
<rect width="1" height="1" transform="matrix(1 0 0 -1 5 4)" fill="#46873A"/>
<rect width="1" height="1" transform="matrix(1 0 0 -1 4 3)" fill="#46873A"/>
<rect width="1" height="1" transform="matrix(1 0 0 -1 3 3)" fill="#46873A"/>
<rect width="1" height="1" transform="matrix(1 0 0 -1 2 3)" fill="#46873A"/>
<rect width="1" height="1" transform="matrix(1 0 0 -1 9 16)" fill="#599A46"/>
<rect width="1" height="1" transform="matrix(1 0 0 -1 7 4)" fill="#599A46"/>
<rect width="1" height="1" transform="matrix(1 0 0 -1 8 4)" fill="#599A46"/>
<rect width="1" height="1" transform="matrix(1 0 0 -1 8 3)" fill="#599A46"/>
<rect width="1" height="1" transform="matrix(1 0 0 -1 22 8)" fill="#599A46"/>
<rect width="1" height="1" transform="matrix(1 0 0 -1 21 9)" fill="#599A46"/>
<rect width="1" height="1" transform="matrix(1 0 0 -1 19 10)" fill="#599A46"/>
<rect width="1" height="1" transform="matrix(1 0 0 -1 14 8)" fill="#599A46"/>
<rect width="1" height="1" transform="matrix(1 0 0 -1 14 9)" fill="#599A46"/>
<rect width="1" height="1" transform="matrix(1 0 0 -1 14 10)" fill="#599A46"/>
<rect width="1" height="1" transform="matrix(1 0 0 -1 16 8)" fill="#599A46"/>
<rect width="1" height="1" transform="matrix(1 0 0 -1 17 8)" fill="#599A46"/>
<rect width="1" height="1" transform="matrix(1 0 0 -1 17 9)" fill="#599A46"/>
<rect width="1" height="1" transform="matrix(1 0 0 -1 17 10)" fill="#599A46"/>
<rect width="1" height="1" transform="matrix(1 0 0 -1 15 8)" fill="#599A46"/>
<rect width="1" height="1" transform="matrix(1 0 0 -1 15 7)" fill="#599A46"/>
<rect width="1" height="1" transform="matrix(1 0 0 -1 16 7)" fill="#599A46"/>
<rect width="1" height="1" transform="matrix(1 0 0 -1 16 4)" fill="#599A46"/>
<rect width="1" height="1" transform="matrix(1 0 0 -1 15 4)" fill="#599A46"/>
<rect width="1" height="1" transform="matrix(1 0 0 -1 18 2)" fill="#599A46"/>
<rect width="1" height="1" transform="matrix(1 0 0 -1 19 3)" fill="#599A46"/>
<rect width="1" height="1" transform="matrix(1 0 0 -1 18 4)" fill="#599A46"/>
<rect width="1" height="1" transform="matrix(1 0 0 -1 17 3)" fill="#599A46"/>
<rect width="1" height="1" transform="matrix(1 0 0 -1 16 2)" fill="#599A46"/>
<rect width="1" height="1" transform="matrix(1 0 0 -1 15 2)" fill="#599A46"/>
<rect width="1" height="1" transform="matrix(1 0 0 -1 14 3)" fill="#599A46"/>
<rect width="1" height="1" transform="matrix(1 0 0 -1 13 4)" fill="#599A46"/>
<rect width="1" height="1" transform="matrix(1 0 0 -1 12 3)" fill="#599A46"/>
<rect width="1" height="1" transform="matrix(1 0 0 -1 11 4)" fill="#599A46"/>
<rect width="1" height="1" transform="matrix(1 0 0 -1 8 15)" fill="#6CAE57"/>
<rect width="1" height="1" transform="matrix(1 0 0 -1 23 15)" fill="#6CAE57"/>
<rect width="1" height="1" transform="matrix(1 0 0 -1 22 16)" fill="#6CAE57"/>
<rect width="1" height="1" transform="matrix(1 0 0 -1 23 4)" fill="#6CAE57"/>
<rect width="1" height="1" transform="matrix(1 0 0 -1 23 3)" fill="#6CAE57"/>
<rect width="1" height="1" transform="matrix(1 0 0 -1 24 3)" fill="#6CAE57"/>
<rect width="1" height="1" transform="matrix(1 0 0 -1 24 4)" fill="#6CAE57"/>
<rect width="1" height="1" transform="matrix(1 0 0 -1 25 4)" fill="#6CAE57"/>
<rect width="1" height="1" transform="matrix(1 0 0 -1 25 3)" fill="#6CAE57"/>
<rect width="1" height="1" transform="matrix(1 0 0 -1 26 2)" fill="#6CAE57"/>
<rect width="1" height="1" transform="matrix(1 0 0 -1 27 2)" fill="#6CAE57"/>
<rect width="1" height="1" transform="matrix(1 0 0 -1 28 2)" fill="#6CAE57"/>
<rect width="1" height="1" transform="matrix(1 0 0 -1 29 2)" fill="#6CAE57"/>
<rect width="1" height="1" transform="matrix(1 0 0 -1 30 3)" fill="#6CAE57"/>
<rect width="1" height="1" transform="matrix(1 0 0 -1 26 3)" fill="#6CAE57"/>
<rect width="1" height="1" transform="matrix(1 0 0 -1 6 4)" fill="#6CAE57"/>
<rect width="1" height="1" transform="matrix(1 0 0 -1 6 3)" fill="#6CAE57"/>
<rect width="1" height="1" transform="matrix(1 0 0 -1 5 3)" fill="#6CAE57"/>
<rect width="1" height="1" transform="matrix(1 0 0 -1 5 2)" fill="#6CAE57"/>
<rect width="1" height="1" transform="matrix(1 0 0 -1 4 2)" fill="#6CAE57"/>
<rect width="1" height="1" transform="matrix(1 0 0 -1 3 2)" fill="#6CAE57"/>
<rect width="1" height="1" transform="matrix(1 0 0 -1 2 2)" fill="#6CAE57"/>
<rect width="1" height="1" transform="matrix(1 0 0 -1 1 3)" fill="#6CAE57"/>
<rect width="1" height="1" transform="matrix(1 0 0 -1 7 3)" fill="#6CAE57"/>
<rect width="1" height="1" transform="matrix(1 0 0 -1 18 9)" fill="#6CAE57"/>
<rect width="1" height="1" transform="matrix(1 0 0 -1 19 9)" fill="#6CAE57"/>
<rect width="1" height="1" transform="matrix(1 0 0 -1 20 9)" fill="#6CAE57"/>
<rect width="1" height="1" transform="matrix(1 0 0 -1 21 8)" fill="#6CAE57"/>
<rect width="1" height="1" transform="matrix(1 0 0 -1 22 7)" fill="#6CAE57"/>
<rect width="1" height="1" transform="matrix(1 0 0 -1 22 6)" fill="#6CAE57"/>
<rect width="1" height="1" transform="matrix(1 0 0 -1 22 5)" fill="#6CAE57"/>
<rect width="1" height="1" transform="matrix(1 0 0 -1 21 5)" fill="#6CAE57"/>
<rect width="1" height="1" transform="matrix(1 0 0 -1 21 4)" fill="#6CAE57"/>
<rect width="1" height="1" transform="matrix(1 0 0 -1 18 10)" fill="#6CAE57"/>
<rect width="1" height="1" transform="matrix(1 0 0 -1 15 3)" fill="#6CAE57"/>
<rect width="1" height="1" transform="matrix(1 0 0 -1 17 2)" fill="#6CAE57"/>
<rect width="1" height="1" transform="matrix(1 0 0 -1 18 3)" fill="#6CAE57"/>
<rect width="1" height="1" transform="matrix(1 0 0 -1 19 4)" fill="#6CAE57"/>
<rect width="1" height="1" transform="matrix(1 0 0 -1 17 4)" fill="#6CAE57"/>
<rect width="1" height="1" transform="matrix(1 0 0 -1 17 5)" fill="#6CAE57"/>
<rect width="1" height="1" transform="matrix(1 0 0 -1 16 5)" fill="#6CAE57"/>
<rect width="1" height="1" transform="matrix(1 0 0 -1 16 6)" fill="#6CAE57"/>
<rect width="1" height="1" transform="matrix(1 0 0 -1 15 6)" fill="#6CAE57"/>
<rect width="1" height="1" transform="matrix(1 0 0 -1 15 5)" fill="#6CAE57"/>
<rect width="1" height="1" transform="matrix(1 0 0 -1 20 4)" fill="#6CAE57"/>
<rect width="1" height="1" transform="matrix(1 0 0 -1 20 3)" fill="#6CAE57"/>
<rect width="1" height="1" transform="matrix(1 0 0 -1 12 4)" fill="#6CAE57"/>
<rect width="1" height="1" transform="matrix(1 0 0 -1 14 2)" fill="#6CAE57"/>
<rect width="1" height="1" transform="matrix(1 0 0 -1 13 3)" fill="#6CAE57"/>
<rect width="1" height="1" transform="matrix(1 0 0 -1 13 2)" fill="#6CAE57"/>
<rect width="1" height="1" transform="matrix(1 0 0 -1 14 4)" fill="#6CAE57"/>
<rect width="1" height="1" transform="matrix(1 0 0 -1 14 5)" fill="#6CAE57"/>
<rect width="1" height="1" transform="matrix(1 0 0 -1 16 3)" fill="#6CAE57"/>
<rect width="1" height="1" transform="matrix(1 0 0 -1 13 10)" fill="#6CAE57"/>
<rect width="1" height="1" transform="matrix(1 0 0 -1 15 10)" fill="#6CAE57"/>
<rect width="1" height="1" transform="matrix(1 0 0 -1 16 10)" fill="#6CAE57"/>
<rect width="1" height="1" transform="matrix(1 0 0 -1 13 9)" fill="#6CAE57"/>
<rect width="1" height="1" transform="matrix(1 0 0 -1 12 10)" fill="#6CAE57"/>
<rect width="1" height="1" transform="matrix(1 0 0 -1 12 9)" fill="#6CAE57"/>
<rect width="1" height="1" transform="matrix(1 0 0 -1 11 9)" fill="#6CAE57"/>
<rect width="1" height="1" transform="matrix(1 0 0 -1 10 9)" fill="#6CAE57"/>
<rect width="1" height="1" transform="matrix(1 0 0 -1 10 8)" fill="#6CAE57"/>
<rect width="1" height="1" transform="matrix(1 0 0 -1 9 8)" fill="#6CAE57"/>
<rect width="1" height="1" transform="matrix(1 0 0 -1 9 7)" fill="#6CAE57"/>
<rect width="1" height="1" transform="matrix(1 0 0 -1 9 6)" fill="#6CAE57"/>
<rect width="1" height="1" transform="matrix(1 0 0 -1 9 5)" fill="#6CAE57"/>
<rect width="1" height="1" transform="matrix(1 0 0 -1 10 5)" fill="#6CAE57"/>
<rect width="1" height="1" transform="matrix(1 0 0 -1 10 4)" fill="#6CAE57"/>
<rect width="1" height="1" transform="matrix(1 0 0 -1 11 8)" fill="black"/>
<rect width="1" height="1" transform="matrix(1 0 0 -1 12 8)" fill="black"/>
<rect width="1" height="1" transform="matrix(1 0 0 -1 13 8)" fill="black"/>
<rect width="1" height="1" transform="matrix(1 0 0 -1 13 7)" fill="black"/>
<rect width="1" height="1" transform="matrix(1 0 0 -1 14 7)" fill="black"/>
<rect width="1" height="1" transform="matrix(1 0 0 -1 13 6)" fill="black"/>
<rect width="1" height="1" transform="matrix(1 0 0 -1 12 6)" fill="black"/>
<rect width="1" height="1" transform="matrix(1 0 0 -1 12 7)" fill="black"/>
<rect width="1" height="1" transform="matrix(1 0 0 -1 19 7)" fill="black"/>
<rect width="1" height="1" transform="matrix(1 0 0 -1 19 6)" fill="black"/>
<rect width="1" height="1" transform="matrix(1 0 0 -1 18 5)" fill="black"/>
<rect width="1" height="1" transform="matrix(1 0 0 -1 23 7)" fill="black"/>
</svg>
