<svg width="94" height="27" viewBox="0 0 94 27" fill="none" xmlns="http://www.w3.org/2000/svg">
<path d="M8.864 10.28L12.032 10.856C12.2027 10.8773 12.3627 10.824 12.512 10.696C12.6613 10.5467 12.7893 10.3013 12.896 9.96C13.024 9.59733 13.12 9.128 13.184 8.552C13.2693 7.976 13.312 7.272 13.312 6.44C13.312 5.11733 13.1627 4.2 12.864 3.688C12.5653 3.176 12.1067 2.96267 11.488 3.048L8.896 3.368V1.416H11.296C12.4267 1.416 13.376 1.576 14.144 1.896C14.912 2.19467 15.488 2.73867 15.872 3.528C16.256 4.296 16.448 5.39467 16.448 6.824C16.448 7.35733 16.416 7.88 16.352 8.392C16.3093 8.88267 16.2027 9.27733 16.032 9.576C15.9253 9.74667 15.7333 9.97067 15.456 10.248C15.2 10.504 14.8907 10.7707 14.528 11.048C14.1653 11.3253 13.792 11.592 13.408 11.848C13.024 12.0827 12.6613 12.2747 12.32 12.424C12 12.5733 11.7333 12.648 11.52 12.648C11.072 12.648 10.624 12.6373 10.176 12.616C9.728 12.5947 9.28 12.5733 8.832 12.552L8.864 10.28ZM2.944 3.624L0.96 3.144V1.896C1.216 1.85333 1.54667 1.81067 1.952 1.768C2.35733 1.704 2.77333 1.65067 3.2 1.608C3.62667 1.544 4 1.50133 4.32 1.48C4.64 1.43733 4.832 1.416 4.896 1.416C4.96 1.416 5.07733 1.49067 5.248 1.64C5.41867 1.78933 5.568 1.96 5.696 2.152C5.84533 2.32267 5.92 2.44 5.92 2.504V19.112L8.672 19.592L8.064 20.776C7.85067 20.7973 7.52 20.84 7.072 20.904C6.64533 20.968 6.208 21.0213 5.76 21.064C5.312 21.128 4.91733 21.1813 4.576 21.224C4.256 21.2667 4.07467 21.288 4.032 21.288C3.968 21.288 3.85067 21.2133 3.68 21.064C3.50933 20.9147 3.33867 20.7547 3.168 20.584C3.01867 20.4133 2.944 20.296 2.944 20.232V3.624ZM14.112 20.488C13.7707 19.7413 13.3653 18.8453 12.896 17.8C12.448 16.7547 12 15.6773 11.552 14.568C11.1253 13.4373 10.7307 12.4133 10.368 11.496H13.728V11.976C14.048 12.808 14.4 13.6613 14.784 14.536C15.1893 15.3893 15.5947 16.2107 16 17C16.4053 17.768 16.7787 18.4827 17.12 19.144L18.816 19.656L18.592 21.16C18.208 21.1813 17.7707 21.1813 17.28 21.16C16.7893 21.1387 16.3093 21.096 15.84 21.032C15.392 20.9893 15.008 20.9253 14.688 20.84C14.368 20.7333 14.176 20.616 14.112 20.488ZM8.544 1.416H9.344V17.768C9.344 17.896 9.29067 18.1307 9.184 18.472C9.07733 18.792 8.90667 19.1653 8.672 19.592H7.68V4.168C7.68 3.93333 7.76533 3.56 7.936 3.048C8.128 2.536 8.33067 1.992 8.544 1.416ZM24.1893 21.288C23.2079 21.288 22.3866 21.1173 21.7253 20.776C21.0853 20.4133 20.6053 19.9227 20.2853 19.304C19.9653 18.6853 19.8053 17.9813 19.8053 17.192C19.8053 16.7013 19.8586 16.1787 19.9653 15.624C20.0933 15.0693 20.3173 14.5573 20.6373 14.088L22.8773 15.24C22.8133 15.4533 22.7599 15.72 22.7173 16.04C22.6746 16.3387 22.6533 16.648 22.6533 16.968C22.6533 17.5867 22.7599 18.0667 22.9733 18.408C23.1866 18.7493 23.6559 18.92 24.3813 18.92C24.4879 18.92 24.7226 18.8453 25.0853 18.696C25.4479 18.5253 25.8746 18.3227 26.3653 18.088C26.8773 17.832 27.3786 17.5867 27.8693 17.352V18.664C27.3573 19.048 26.8239 19.4427 26.2693 19.848C25.7359 20.2533 25.2773 20.5947 24.8933 20.872C24.5093 21.1493 24.2746 21.288 24.1893 21.288ZM20.6373 14.088L27.5493 13.064V14.472L22.4933 15.528L20.6373 14.088ZM20.8613 8.424L21.3093 6.472C22.0773 6.42933 22.7599 6.408 23.3573 6.408C23.9546 6.38667 24.5199 6.38667 25.0533 6.408C25.5866 6.408 26.1306 6.42933 26.6853 6.472C27.0053 6.49333 27.3573 6.65333 27.7413 6.952C28.1466 7.22933 28.5306 7.58133 28.8933 8.008C29.2773 8.41333 29.5866 8.84 29.8213 9.288C30.0773 9.71467 30.2053 10.088 30.2053 10.408V19.112L31.3253 19.592V20.776C30.8986 20.8613 30.4719 20.936 30.0453 21C29.6399 21.0853 29.2879 21.1493 28.9893 21.192C28.6906 21.256 28.4986 21.288 28.4133 21.288C28.3493 21.288 28.2319 21.2133 28.0613 21.064C27.8906 20.936 27.7306 20.7867 27.5813 20.616C27.4533 20.4453 27.3893 20.3173 27.3893 20.232V18.664L27.2933 18.28V11.048C27.2933 10.344 27.1546 9.82133 26.8773 9.48C26.6213 9.13867 26.2159 8.94667 25.6613 8.904C25.4479 8.88267 25.0959 8.872 24.6053 8.872C24.1146 8.872 23.5706 8.88267 22.9733 8.904C22.3759 8.904 21.8106 8.91467 21.2773 8.936L20.8613 8.424ZM40.2545 6.376C41.0652 6.376 41.8545 6.62133 42.6225 7.112C43.3905 7.58133 44.0198 8.31733 44.5105 9.32C45.0012 10.3013 45.2465 11.5813 45.2465 13.16C45.2465 14.2693 45.1718 15.2613 45.0225 16.136C44.8945 17.0107 44.7132 17.672 44.4785 18.12C44.3078 18.3547 44.0092 18.6533 43.5825 19.016C43.1558 19.3573 42.6865 19.7093 42.1745 20.072C41.6838 20.4133 41.2145 20.7013 40.7665 20.936C40.3398 21.1707 40.0305 21.288 39.8385 21.288C39.6252 21.288 39.2518 21.2453 38.7185 21.16C38.2065 21.096 37.6305 21.0213 36.9905 20.936V24.488L38.2705 25V26.28C38.0998 26.3227 37.8545 26.3653 37.5345 26.408C37.2358 26.472 36.9158 26.5253 36.5745 26.568C36.2332 26.632 35.9345 26.6853 35.6785 26.728C35.4225 26.7707 35.2625 26.792 35.1985 26.792C35.1345 26.792 35.0065 26.7173 34.8145 26.568C34.6438 26.4187 34.4732 26.2587 34.3025 26.088C34.1532 25.9173 34.0785 25.8 34.0785 25.736L34.2385 20.584V8.52L33.1505 8.072V6.888C33.3212 6.84533 33.5452 6.80267 33.8225 6.76C34.1212 6.696 34.4198 6.64267 34.7185 6.6C35.0172 6.536 35.2838 6.48267 35.5185 6.44C35.7532 6.39733 35.9025 6.376 35.9665 6.376C36.0305 6.376 36.1478 6.45067 36.3185 6.6C36.4892 6.74933 36.6492 6.90933 36.7985 7.08C36.9692 7.22933 37.0545 7.34667 37.0545 7.432V8.68C37.4385 8.40267 37.8652 8.08267 38.3345 7.72C38.8038 7.35733 39.2198 7.048 39.5825 6.792C39.9665 6.51467 40.1905 6.376 40.2545 6.376ZM40.0625 8.744C39.9985 8.744 39.7852 8.81867 39.4225 8.968C39.0812 9.11733 38.6972 9.29867 38.2705 9.512C37.8438 9.704 37.4705 9.87467 37.1505 10.024V18.824C37.4918 18.9307 37.9185 19.0373 38.4305 19.144C38.9638 19.2507 39.4652 19.336 39.9345 19.4C40.4252 19.4427 40.7665 19.4533 40.9585 19.432C41.2145 19.3893 41.4278 19.1973 41.5985 18.856C41.7905 18.5147 41.9292 17.928 42.0145 17.096C42.1212 16.2427 42.1745 15.0693 42.1745 13.576C42.1745 12.3813 42.0358 11.432 41.7585 10.728C41.5025 10.024 41.2038 9.52267 40.8625 9.224C40.5425 8.904 40.2758 8.744 40.0625 8.744ZM47.5568 2.024V0.839998C47.5568 0.839998 47.6421 0.829332 47.8128 0.807999C48.0048 0.765333 48.2288 0.722666 48.4848 0.679998C48.7621 0.615999 49.0394 0.562666 49.3168 0.519999C49.5941 0.455999 49.8394 0.413333 50.0528 0.391998C50.2661 0.349332 50.4048 0.327999 50.4688 0.327999C50.5328 0.327999 50.6501 0.402665 50.8208 0.551998C51.0128 0.701332 51.1834 0.861333 51.3328 1.032C51.5034 1.18133 51.5888 1.29867 51.5888 1.384L51.4288 8.616L51.5888 8.648C51.8661 8.43467 52.1754 8.2 52.5168 7.944C52.8794 7.688 53.2208 7.44267 53.5408 7.208C53.8821 6.97333 54.1701 6.78133 54.4048 6.632C54.6394 6.46133 54.7674 6.376 54.7888 6.376C55.7701 6.376 56.6021 6.536 57.2848 6.856C57.9674 7.176 58.4901 7.73067 58.8528 8.52C59.2154 9.30933 59.3968 10.3973 59.3968 11.784V20.104C59.3968 20.744 59.2794 21.416 59.0448 22.12C58.8101 22.8453 58.4688 23.5067 58.0208 24.104C57.5941 24.7013 57.0608 25.1493 56.4208 25.448L55.4928 24.68C55.7914 24.1893 56.0048 23.688 56.1328 23.176C56.2821 22.6853 56.3781 22.184 56.4208 21.672C56.4634 21.1813 56.4848 20.7013 56.4848 20.232V11.784C56.4848 10.76 56.3568 10.0453 56.1008 9.64C55.8661 9.21333 55.5994 8.968 55.3008 8.904C55.0234 8.81867 54.7994 8.776 54.6288 8.776C54.5434 8.776 54.2874 8.86133 53.8608 9.032C53.4341 9.20267 52.9968 9.384 52.5488 9.576C52.1008 9.768 51.7808 9.90667 51.5888 9.992V19.112L52.6768 19.592V20.776C52.6768 20.776 52.5381 20.808 52.2608 20.872C52.0048 20.9147 51.6848 20.968 51.3008 21.032C50.9381 21.096 50.5968 21.1493 50.2768 21.192C49.9781 21.256 49.7968 21.288 49.7328 21.288C49.6688 21.288 49.5514 21.2133 49.3808 21.064C49.2101 20.9147 49.0501 20.7547 48.9008 20.584C48.7514 20.4133 48.6768 20.296 48.6768 20.232V2.472L47.5568 2.024ZM66.4393 21.288C65.4579 21.288 64.6366 21.1173 63.9753 20.776C63.3353 20.4133 62.8553 19.9227 62.5353 19.304C62.2153 18.6853 62.0553 17.9813 62.0553 17.192C62.0553 16.7013 62.1086 16.1787 62.2153 15.624C62.3433 15.0693 62.5673 14.5573 62.8873 14.088L65.1273 15.24C65.0633 15.4533 65.0099 15.72 64.9673 16.04C64.9246 16.3387 64.9033 16.648 64.9033 16.968C64.9033 17.5867 65.0099 18.0667 65.2233 18.408C65.4366 18.7493 65.9059 18.92 66.6313 18.92C66.7379 18.92 66.9726 18.8453 67.3353 18.696C67.6979 18.5253 68.1246 18.3227 68.6153 18.088C69.1273 17.832 69.6286 17.5867 70.1193 17.352V18.664C69.6073 19.048 69.0739 19.4427 68.5193 19.848C67.9859 20.2533 67.5273 20.5947 67.1433 20.872C66.7593 21.1493 66.5246 21.288 66.4393 21.288ZM62.8873 14.088L69.7993 13.064V14.472L64.7433 15.528L62.8873 14.088ZM63.1113 8.424L63.5593 6.472C64.3273 6.42933 65.0099 6.408 65.6073 6.408C66.2046 6.38667 66.7699 6.38667 67.3033 6.408C67.8366 6.408 68.3806 6.42933 68.9353 6.472C69.2553 6.49333 69.6073 6.65333 69.9913 6.952C70.3966 7.22933 70.7806 7.58133 71.1433 8.008C71.5273 8.41333 71.8366 8.84 72.0713 9.288C72.3273 9.71467 72.4553 10.088 72.4553 10.408V19.112L73.5753 19.592V20.776C73.1486 20.8613 72.7219 20.936 72.2953 21C71.8899 21.0853 71.5379 21.1493 71.2393 21.192C70.9406 21.256 70.7486 21.288 70.6633 21.288C70.5993 21.288 70.4819 21.2133 70.3113 21.064C70.1406 20.936 69.9806 20.7867 69.8313 20.616C69.7033 20.4453 69.6393 20.3173 69.6393 20.232V18.664L69.5433 18.28V11.048C69.5433 10.344 69.4046 9.82133 69.1273 9.48C68.8713 9.13867 68.4659 8.94667 67.9113 8.904C67.6979 8.88267 67.3459 8.872 66.8553 8.872C66.3646 8.872 65.8206 8.88267 65.2233 8.904C64.6259 8.904 64.0606 8.91467 63.5273 8.936L63.1113 8.424ZM78.6005 13.992C78.6005 15.3787 78.7818 16.4347 79.1445 17.16C79.5285 17.8853 79.9552 18.376 80.4245 18.632C80.8938 18.888 81.2778 19.016 81.5765 19.016C81.6618 19.016 81.8645 19.016 82.1845 19.016C82.5045 18.9947 82.8778 18.9733 83.3045 18.952C83.7312 18.9307 84.1578 18.9093 84.5845 18.888C85.0112 18.8667 85.3845 18.856 85.7045 18.856V20.168C85.3205 20.296 84.8832 20.424 84.3925 20.552C83.9018 20.68 83.4112 20.7973 82.9205 20.904C82.4298 21.0107 81.9925 21.096 81.6085 21.16C81.2458 21.2453 80.9898 21.288 80.8405 21.288C79.9658 21.288 79.1232 21.0533 78.3125 20.584C77.5018 20.0933 76.8298 19.3573 76.2965 18.376C75.7845 17.3733 75.5285 16.104 75.5285 14.568C75.5285 13.5013 75.6032 12.52 75.7525 11.624C75.9018 10.728 76.0832 10.0773 76.2965 9.672C76.4672 9.416 76.7658 9.10667 77.1925 8.744C77.6405 8.36 78.1205 7.99733 78.6325 7.656C79.1658 7.29333 79.6565 6.99467 80.1045 6.76C80.5525 6.504 80.8832 6.376 81.0965 6.376C82.2698 6.376 83.2192 6.568 83.9445 6.952C84.6912 7.336 85.2458 8.06133 85.6085 9.128C85.9712 10.1733 86.1525 11.72 86.1525 13.768L77.1925 14.696V13.48L83.0485 12.52C83.0485 11.2187 82.9098 10.1947 82.6325 9.448C82.3552 8.68 81.7578 8.296 80.8405 8.296C80.6698 8.296 80.4778 8.30667 80.2645 8.328C80.0725 8.34933 79.8592 8.41333 79.6245 8.52C79.3258 8.66933 79.0805 9.24533 78.8885 10.248C78.6965 11.2293 78.6005 12.4773 78.6005 13.992ZM90.5773 21.288C90.5133 21.288 90.3959 21.2133 90.2253 21.064C90.0546 20.9147 89.8946 20.7547 89.7453 20.584C89.5959 20.4133 89.5213 20.296 89.5213 20.232V2.472L88.3693 2.024V0.839998C88.3693 0.839998 88.4546 0.829332 88.6253 0.807999C88.8173 0.765333 89.0519 0.722666 89.3293 0.679998C89.6066 0.615999 89.8839 0.562666 90.1613 0.519999C90.4599 0.455999 90.7159 0.413333 90.9293 0.391998C91.1426 0.349332 91.2813 0.327999 91.3453 0.327999C91.4093 0.327999 91.5266 0.402665 91.6973 0.551998C91.8679 0.701332 92.0279 0.861333 92.1773 1.032C92.3266 1.18133 92.4013 1.29867 92.4013 1.384V19.112L93.4893 19.592V20.776C93.4893 20.776 93.3506 20.808 93.0733 20.872C92.8173 20.9147 92.5079 20.968 92.1453 21.032C91.7826 21.096 91.4413 21.1493 91.1213 21.192C90.8226 21.256 90.6413 21.288 90.5773 21.288Z" fill="#131313"/>
</svg>
