<svg width="24" height="20" viewBox="0 0 15 11" fill="none" xmlns="http://www.w3.org/2000/svg">
<path d="M8.66667 3.85905V3.0765C9.03333 2.92434 9.40833 2.81022 9.79167 2.73414C10.175 2.65806 10.5778 2.62002 11 2.62002C11.2889 2.62002 11.5722 2.64175 11.85 2.68523C12.1278 2.7287 12.4 2.78305 12.6667 2.84826V3.56559C12.4 3.46777 12.1306 3.39441 11.8583 3.3455C11.5861 3.29659 11.3 3.27214 11 3.27214C10.5778 3.27214 10.1722 3.32376 9.78333 3.42702C9.39444 3.53027 9.02222 3.67428 8.66667 3.85905ZM8.66667 7.44571V6.64686C9.03333 6.50014 9.40833 6.39009 9.79167 6.31673C10.175 6.24336 10.5778 6.20668 11 6.20668C11.2889 6.20668 11.5722 6.22842 11.85 6.27189C12.1278 6.31537 12.4 6.36971 12.6667 6.43492V7.15226C12.4 7.05444 12.1306 6.98108 11.8583 6.93217C11.5861 6.88326 11.3 6.8588 11 6.8588C10.5778 6.8588 10.1722 6.90771 9.78333 7.00553C9.39444 7.10335 9.02222 7.25008 8.66667 7.44571ZM8.66667 5.65238V4.86983C9.03333 4.71767 9.40833 4.60355 9.79167 4.52747C10.175 4.45139 10.5778 4.41335 11 4.41335C11.2889 4.41335 11.5722 4.43509 11.85 4.47856C12.1278 4.52204 12.4 4.57638 12.6667 4.64159V5.35892C12.4 5.26111 12.1306 5.18774 11.8583 5.13883C11.5861 5.08992 11.3 5.06547 11 5.06547C10.5778 5.06547 10.1722 5.1171 9.78333 5.22035C9.39444 5.3236 9.02222 5.46761 8.66667 5.65238ZM3.46667 8.32608C4.06184 8.32608 4.64119 8.394 5.20472 8.52986C5.76824 8.66572 6.32222 8.86951 6.86667 9.14123V2.17983C6.36667 1.85377 5.82434 1.60108 5.23968 1.42174C4.65504 1.24241 4.06403 1.15274 3.46667 1.15274C3.04444 1.15274 2.63056 1.20437 2.225 1.30762C1.81944 1.41087 1.41111 1.53858 1 1.69074V8.76626C1.34444 8.6141 1.73611 8.50269 2.175 8.43205C2.61389 8.3614 3.04444 8.32608 3.46667 8.32608ZM7.86667 9.14123C8.42222 8.86951 8.96667 8.66572 9.5 8.52986C10.0333 8.394 10.6 8.32608 11.2 8.32608C11.6222 8.32608 12.0583 8.35868 12.5083 8.42389C12.9583 8.48911 13.3444 8.57606 13.6667 8.68474V1.69074C13.2889 1.50597 12.8899 1.37012 12.4696 1.28317C12.0494 1.19622 11.6262 1.15274 11.2 1.15274C10.6 1.15274 10.0194 1.24241 9.45833 1.42174C8.89722 1.60108 8.36667 1.85377 7.86667 2.17983V9.14123ZM7.36667 10.6085C6.8 10.1955 6.18333 9.87758 5.51667 9.65477C4.85 9.43196 4.16667 9.32056 3.46667 9.32056C3.0607 9.32056 2.66199 9.36947 2.27053 9.46729C1.87907 9.56511 1.48889 9.68466 1.1 9.82595C0.843333 9.94551 0.595833 9.92921 0.3575 9.77705C0.119167 9.62488 0 9.40751 0 9.12492V1.57662C0 1.41359 0.0388889 1.26415 0.116667 1.12829C0.194444 0.992429 0.311111 0.88646 0.466667 0.810379C0.933333 0.593005 1.41886 0.432692 1.92325 0.329439C2.42763 0.226187 2.9421 0.174561 3.46667 0.174561C4.16667 0.174561 4.84722 0.266944 5.50833 0.451712C6.16944 0.63648 6.78889 0.919066 7.36667 1.29947C7.93333 0.919066 8.54167 0.63648 9.19167 0.451712C9.84167 0.266944 10.5111 0.174561 11.2 0.174561C11.7208 0.174561 12.2315 0.226187 12.7322 0.329439C13.233 0.432692 13.7167 0.593005 14.1833 0.810379C14.3389 0.88646 14.4583 0.992429 14.5417 1.12829C14.625 1.26415 14.6667 1.41359 14.6667 1.57662V9.12492C14.6667 9.4281 14.5417 9.65877 14.2917 9.81694C14.0417 9.97511 13.7944 9.97812 13.55 9.82595C13.1722 9.67379 12.7876 9.55152 12.3961 9.45914C12.0047 9.36675 11.606 9.32056 11.2 9.32056C10.5 9.32056 9.82778 9.43468 9.18333 9.66292C8.53889 9.89117 7.93333 10.2064 7.36667 10.6085Z" fill="url(#paint0_linear_7_135)"/>
<defs>
<linearGradient id="paint0_linear_7_135" x1="7.33333" y1="0.174561" x2="7.33333" y2="10.6085" gradientUnits="userSpaceOnUse">
<stop stop-color="#0879B9"/>
<stop offset="1" stop-color="#49B1EC"/>
</linearGradient>
</defs>
</svg>
