<svg width="24" height="23" viewBox="0 0 15 14" fill="none" xmlns="http://www.w3.org/2000/svg">
<path d="M7.25 13.5115L10.2667 5.68609H11.6333L14.7333 13.5115H13.2833L12.6 11.4574H9.4L8.61667 13.5115H7.25ZM9.76667 10.3161H12.1333L10.9667 7.15336H10.9333L9.76667 10.3161ZM2 11.5552L1.08333 10.6585L4.48333 7.33269C4.06111 6.85447 3.68611 6.37353 3.35833 5.88987C3.03056 5.40622 2.74444 4.90354 2.5 4.38184H3.95C4.13889 4.74051 4.34722 5.08016 4.575 5.40078C4.80278 5.72141 5.06111 6.05019 5.35 6.38712C5.85 5.87629 6.26667 5.34644 6.6 4.79757C6.93333 4.2487 7.21667 3.67538 7.45 3.0776H0V1.77336H4.66667V0.469116H6V1.77336H10.6667V3.0776H8.78333C8.53889 3.82754 8.21389 4.56389 7.80833 5.28666C7.40278 6.00943 6.90556 6.69687 6.31667 7.349L7.95 8.963L7.45 10.2835L5.33333 8.29457L2 11.5552Z" fill="url(#paint0_linear_7_133)"/>
<defs>
<linearGradient id="paint0_linear_7_133" x1="7.36667" y1="0.469116" x2="7.36667" y2="13.5115" gradientUnits="userSpaceOnUse">
<stop stop-color="#0879B9"/>
<stop offset="1" stop-color="#49B1EC"/>
</linearGradient>
</defs>
</svg>
